<svg viewBox="0 0 1000 620" width="100%" height="100%" xmlns="http://www.w3.org/2000/svg" style="background:transparent;font-family:'PingFang SC','Microsoft YaHei',sans-serif">
  <defs>
    <marker id="arrow" viewBox="0 0 10 10" refX="9" refY="5" markerWidth="6" markerHeight="6" orient="auto">
      <path d="M 0 0 L 10 5 L 0 10 Z" fill="#94a3b8"/>
    </marker>
    <marker id="arrow-blue" viewBox="0 0 10 10" refX="9" refY="5" markerWidth="6" markerHeight="6" orient="auto">
      <path d="M 0 0 L 10 5 L 0 10 Z" fill="#60a5fa"/>
    </marker>
    <linearGradient id="fe" x1="0" y1="0" x2="0" y2="1"><stop offset="0%" stop-color="#22d3ee" stop-opacity="0.15"/><stop offset="100%" stop-color="#22d3ee" stop-opacity="0.03"/></linearGradient>
    <linearGradient id="be" x1="0" y1="0" x2="0" y2="1"><stop offset="0%" stop-color="#34d399" stop-opacity="0.15"/><stop offset="100%" stop-color="#34d399" stop-opacity="0.03"/></linearGradient>
    <linearGradient id="db" x1="0" y1="0" x2="0" y2="1"><stop offset="0%" stop-color="#a78bfa" stop-opacity="0.15"/><stop offset="100%" stop-color="#a78bfa" stop-opacity="0.03"/></linearGradient>
    <linearGradient id="ex" x1="0" y1="0" x2="0" y2="1"><stop offset="0%" stop-color="#fbbf24" stop-opacity="0.12"/><stop offset="100%" stop-color="#fbbf24" stop-opacity="0.03"/></linearGradient>
  </defs>

  <!-- Title -->
  <text x="500" y="30" text-anchor="middle" fill="#e2e8f0" font-size="18" font-weight="bold">系统整体架构图</text>
  <text x="500" y="48" text-anchor="middle" fill="#64748b" font-size="11">兰台云-数智馆藏 · 前端模块与数据流</text>

  <!-- ===== Layer 1: 用户层 ===== -->
  <rect x="40" y="75" width="920" height="60" rx="8" fill="none" stroke="#22d3ee" stroke-width="1" stroke-dasharray="6,3" opacity="0.5"/>
  <rect x="40" y="75" width="920" height="22" rx="8" fill="#22d3ee" opacity="0.06"/>
  <text x="50" y="91" fill="#22d3ee" font-size="10" font-weight="bold">用户层</text>

  <rect x="80" y="100" width="120" height="30" rx="6" fill="#0f172a" stroke="#22d3ee" stroke-width="1"/>
  <rect x="80" y="100" width="120" height="30" rx="6" fill="rgba(8,51,68,0.4)"/>
  <text x="140" y="119" text-anchor="middle" fill="#22d3ee" font-size="10">档案馆管理员</text>

  <rect x="240" y="100" width="120" height="30" rx="6" fill="#0f172a" stroke="#22d3ee" stroke-width="1"/>
  <rect x="240" y="100" width="120" height="30" rx="6" fill="rgba(8,51,68,0.4)"/>
  <text x="300" y="119" text-anchor="middle" fill="#22d3ee" font-size="10">档案利用人</text>

  <rect x="400" y="100" width="140" height="30" rx="6" fill="#0f172a" stroke="#22d3ee" stroke-width="1"/>
  <rect x="400" y="100" width="140" height="30" rx="6" fill="rgba(8,51,68,0.4)"/>
  <text x="470" y="119" text-anchor="middle" fill="#22d3ee" font-size="10">接收审核系统</text>

  <!-- Arrow layer 1→2 -->
  <line x1="140" y1="135" x2="140" y2="160" stroke="#94a3b8" stroke-width="1" marker-end="url(#arrow)"/>
  <line x1="300" y1="135" x2="300" y2="160" stroke="#94a3b8" stroke-width="1" marker-end="url(#arrow)"/>
  <line x1="470" y1="135" x2="470" y2="160" stroke="#94a3b8" stroke-width="1" marker-end="url(#arrow)"/>

  <!-- ===== Layer 2: 前端应用层 ===== -->
  <rect x="40" y="165" width="920" height="190" rx="8" fill="none" stroke="#34d399" stroke-width="1" stroke-dasharray="6,3" opacity="0.5"/>
  <rect x="40" y="165" width="920" height="22" rx="8" fill="#34d399" opacity="0.06"/>
  <text x="50" y="181" fill="#34d399" font-size="10" font-weight="bold">前端应用层 (React 19 + TypeScript + Vite)</text>

  <!-- Sidebar -->
  <rect x="60" y="195" width="130" height="140" rx="6" fill="rgba(6,78,59,0.3)" stroke="#34d399" stroke-width="0.8"/>
  <text x="125" y="213" text-anchor="middle" fill="#34d399" font-size="10" font-weight="600">侧栏路由</text>
  <text x="125" y="234" text-anchor="middle" fill="#94a3b8" font-size="9">🏠 首页</text>
  <text x="125" y="252" text-anchor="middle" fill="#94a3b8" font-size="9">📦 入库</text>
  <text x="125" y="270" text-anchor="middle" fill="#94a3b8" font-size="9">🔍 综合查询</text>
  <text x="125" y="288" text-anchor="middle" fill="#94a3b8" font-size="9">📄 全文检索</text>
  <text x="125" y="306" text-anchor="middle" fill="#94a3b8" font-size="9">📋 利用</text>
  <text x="125" y="324" text-anchor="middle" fill="#94a3b8" font-size="9">📊 统计</text>

  <!-- Main modules -->
  <rect x="210" y="195" width="160" height="140" rx="6" fill="rgba(6,78,59,0.3)" stroke="#34d399" stroke-width="0.8"/>
  <text x="290" y="213" text-anchor="middle" fill="#34d399" font-size="10" font-weight="600">入库模块</text>
  <text x="290" y="235" text-anchor="middle" fill="#94a3b8" font-size="9">Step1 上传</text>
  <text x="290" y="253" text-anchor="middle" fill="#94a3b8" font-size="9">Step2 检测</text>
  <text x="290" y="271" text-anchor="middle" fill="#94a3b8" font-size="9">Step3 著录</text>
  <text x="290" y="289" text-anchor="middle" fill="#94a3b8" font-size="9">Step4 入库</text>
  <text x="290" y="310" text-anchor="middle" fill="#64748b" font-size="8">右键菜单 · 截图展示</text>

  <rect x="390" y="195" width="160" height="140" rx="6" fill="rgba(6,78,59,0.3)" stroke="#34d399" stroke-width="0.8"/>
  <text x="470" y="213" text-anchor="middle" fill="#34d399" font-size="10" font-weight="600">查询模块</text>
  <text x="470" y="235" text-anchor="middle" fill="#94a3b8" font-size="9">综合查询</text>
  <text x="470" y="253" text-anchor="middle" fill="#94a3b8" font-size="9">跨4级联合检索</text>
  <text x="470" y="271" text-anchor="middle" fill="#94a3b8" font-size="9">高级筛选</text>
  <text x="470" y="289" text-anchor="middle" fill="#94a3b8" font-size="9">全文检索</text>
  <text x="470" y="310" text-anchor="middle" fill="#64748b" font-size="8">AI 深度搜索</text>

  <rect x="570" y="195" width="160" height="140" rx="6" fill="rgba(6,78,59,0.3)" stroke="#34d399" stroke-width="0.8"/>
  <text x="650" y="213" text-anchor="middle" fill="#34d399" font-size="10" font-weight="600">利用模块</text>
  <text x="650" y="235" text-anchor="middle" fill="#94a3b8" font-size="9">利用登记表单</text>
  <text x="650" y="253" text-anchor="middle" fill="#94a3b8" font-size="9">利用清单管理</text>
  <text x="650" y="271" text-anchor="middle" fill="#94a3b8" font-size="9">审计日志</text>
  <text x="650" y="289" text-anchor="middle" fill="#94a3b8" font-size="9">搜索/详情/修改</text>

  <rect x="750" y="195" width="190" height="140" rx="6" fill="rgba(6,78,59,0.3)" stroke="#34d399" stroke-width="0.8"/>
  <text x="845" y="213" text-anchor="middle" fill="#34d399" font-size="10" font-weight="600">通用组件</text>
  <text x="845" y="235" text-anchor="middle" fill="#94a3b8" font-size="9">档案目录树</text>
  <text x="845" y="253" text-anchor="middle" fill="#94a3b8" font-size="9">4级元数据表单</text>
  <text x="845" y="271" text-anchor="middle" fill="#94a3b8" font-size="9">预览面板</text>
  <text x="845" y="289" text-anchor="middle" fill="#94a3b8" font-size="9">PDF 嵌入</text>
  <text x="845" y="310" text-anchor="middle" fill="#64748b" font-size="8">拖拽 · 右键菜单</text>

  <!-- Arrow layer 2→3 -->
  <line x1="290" y1="355" x2="290" y2="380" stroke="#94a3b8" stroke-width="1" marker-end="url(#arrow)"/>
  <line x1="470" y1="355" x2="470" y2="380" stroke="#94a3b8" stroke-width="1" marker-end="url(#arrow)"/>
  <line x1="650" y1="355" x2="650" y2="380" stroke="#94a3b8" stroke-width="1" marker-end="url(#arrow)"/>
  <line x1="845" y1="355" x2="845" y2="380" stroke="#94a3b8" stroke-width="1" marker-end="url(#arrow)"/>

  <!-- ===== Layer 3: 数据层 ===== -->
  <rect x="40" y="385" width="920" height="100" rx="8" fill="none" stroke="#a78bfa" stroke-width="1" stroke-dasharray="6,3" opacity="0.5"/>
  <rect x="40" y="385" width="920" height="22" rx="8" fill="#a78bfa" opacity="0.06"/>
  <text x="50" y="401" fill="#a78bfa" font-size="10" font-weight="bold">数据层</text>

  <rect x="80" y="410" width="160" height="60" rx="6" fill="#0f172a" stroke="#a78bfa" stroke-width="1"/>
  <rect x="80" y="410" width="160" height="60" rx="6" fill="rgba(76,29,149,0.35)"/>
  <text x="160" y="435" text-anchor="middle" fill="#a78bfa" font-size="10" font-weight="600">archiveData.json</text>
  <text x="160" y="455" text-anchor="middle" fill="#64748b" font-size="8">4级档案数据结构</text>

  <rect x="280" y="410" width="160" height="60" rx="6" fill="#0f172a" stroke="#a78bfa" stroke-width="1"/>
  <rect x="280" y="410" width="160" height="60" rx="6" fill="rgba(76,29,149,0.35)"/>
  <text x="360" y="435" text-anchor="middle" fill="#a78bfa" font-size="10" font-weight="600">localStorage</text>
  <text x="360" y="455" text-anchor="middle" fill="#64748b" font-size="8">文件管理增量数据</text>

  <rect x="480" y="410" width="160" height="60" rx="6" fill="#0f172a" stroke="#a78bfa" stroke-width="1"/>
  <rect x="480" y="410" width="160" height="60" rx="6" fill="rgba(76,29,149,0.35)"/>
  <text x="560" y="435" text-anchor="middle" fill="#a78bfa" font-size="10" font-weight="600">fullTextIndex.json</text>
  <text x="560" y="455" text-anchor="middle" fill="#64748b" font-size="8">OCR 全文索引</text>

  <rect x="680" y="410" width="180" height="60" rx="6" fill="#0f172a" stroke="#a78bfa" stroke-width="1"/>
  <rect x="680" y="410" width="180" height="60" rx="6" fill="rgba(76,29,149,0.35)"/>
  <text x="770" y="435" text-anchor="middle" fill="#a78bfa" font-size="10" font-weight="600">模拟数据生成器</text>
  <text x="770" y="455" text-anchor="middle" fill="#64748b" font-size="8">dashboardData.ts</text>

  <!-- Arrow layer 3→4 -->
  <line x1="160" y1="475" x2="160" y2="500" stroke="#94a3b8" stroke-width="1" marker-end="url(#arrow)"/>

  <!-- ===== Layer 4: 基础设施 ===== -->
  <rect x="40" y="505" width="920" height="80" rx="8" fill="none" stroke="#fbbf24" stroke-width="1" stroke-dasharray="6,3" opacity="0.5"/>
  <rect x="40" y="505" width="920" height="22" rx="8" fill="#fbbf24" opacity="0.06"/>
  <text x="50" y="521" fill="#fbbf24" font-size="10" font-weight="bold">基础设施</text>

  <rect x="80" y="530" width="200" height="40" rx="6" fill="rgba(120,53,15,0.25)" stroke="#fbbf24" stroke-width="0.8"/>
  <text x="180" y="555" text-anchor="middle" fill="#fbbf24" font-size="10">Vite Dev Server (5174)</text>

  <rect x="320" y="530" width="200" height="40" rx="6" fill="rgba(120,53,15,0.25)" stroke="#fbbf24" stroke-width="0.8"/>
  <text x="420" y="555" text-anchor="middle" fill="#fbbf24" font-size="10">GitHub 代码托管</text>

  <rect x="560" y="530" width="200" height="40" rx="6" fill="rgba(120,53,15,0.25)" stroke="#fbbf24" stroke-width="0.8"/>
  <text x="660" y="555" text-anchor="middle" fill="#fbbf24" font-size="10">Vercel 演示部署</text>

  <!-- Legend -->
  <rect x="40" y="600" width="10" height="10" rx="2" fill="#22d3ee" opacity="0.6"/>
  <text x="56" y="609" fill="#64748b" font-size="9">用户层</text>
  <rect x="130" y="600" width="10" height="10" rx="2" fill="#34d399" opacity="0.6"/>
  <text x="146" y="609" fill="#64748b" font-size="9">前端应用</text>
  <rect x="230" y="600" width="10" height="10" rx="2" fill="#a78bfa" opacity="0.6"/>
  <text x="246" y="609" fill="#64748b" font-size="9">数据层</text>
  <rect x="310" y="600" width="10" height="10" rx="2" fill="#fbbf24" opacity="0.6"/>
  <text x="326" y="609" fill="#64748b" font-size="9">基础设施</text>
</svg>
